# xmcd
#
# Track frame offsets: 
#        150
#        14373
#        26647
#        40951
#        53411
#        66054
#        79907
#        92040
#        104326
#        118103
#        131118
#        144190
#        156609
#        166683
#        180201
#        193265
#        206827
#        219356
#        230609
#        243585
#
# Disc length: 3412 seconds
#
# Revision: 2
# Processed by: cddbd v1.5.2PL0 Copyright (c) Steve Scherf et al.
# Submitted via: ExactAudioCopyFreeDBPlugin 1.0
#
DISCID=170d5214
DTITLE=Little Walter - ABC Of The Blues - Vol. 22 Little Walter
DYEAR=2010
DGENRE=Blues
TTITLE0=Blues With A Feeling
TTITLE1=Juke
TTITLE2=Sad Hours
TTITLE3=Tell Me Mama
TTITLE4=Off The Wall
TTITLE5=You Better Watch Yourself
TTITLE6=My Babe
TTITLE7=Last Night
TTITLE8=You're So Fine
TTITLE9=Roller Coaster
TTITLE10=Moonshine Blues
TTITLE11=Bad Acting Woman
TTITLE12=Blue Baby
TTITLE13=Can't Hold On Much Longer
TTITLE14=Tonight With A Fool
TTITLE15=Boogie
TTITLE16=Red Headed Woman
TTITLE17=I Just Keep Loving Her
TTITLE18=Mean Old World
TTITLE19=Lights Out
EXTD=
EXTT0=
EXTT1=
EXTT2=
EXTT3=
EXTT4=
EXTT5=
EXTT6=
EXTT7=
EXTT8=
EXTT9=
EXTT10=
EXTT11=
EXTT12=
EXTT13=
EXTT14=
EXTT15=
EXTT16=
EXTT17=
EXTT18=
EXTT19=
PLAYORDER=
